<?xml version="1.0" encoding="UTF-8" standalone="no"?>
<!DOCTYPE svg PUBLIC "-//W3C//DTD SVG 1.1//EN"
 "http://www.w3.org/Graphics/SVG/1.1/DTD/svg11.dtd">
<!-- Generated by graphviz version 5.0.0 (20220707.1540)
 -->
<!-- Title: dependencies Pages: 1 -->
<svg width="846pt" height="247pt"
 viewBox="0.00 0.00 846.00 246.80" xmlns="http://www.w3.org/2000/svg" xmlns:xlink="http://www.w3.org/1999/xlink">
<g id="graph0" class="graph" transform="scale(1 1) rotate(0) translate(4 242.8)">
<title>dependencies</title>
<polygon fill="white" stroke="transparent" points="-4,4 -4,-242.8 842,-242.8 842,4 -4,4"/>
<text text-anchor="middle" x="419" y="-8.2" font-family="sans-serif" font-size="14.00">dependencies</text>
<g id="clust1" class="cluster">
<title>cluster_AppModule</title>
<polygon fill="none" stroke="black" stroke-dasharray="1,5" points="8,-32.8 8,-230.8 830,-230.8 830,-32.8 8,-32.8"/>
</g>
<g id="clust2" class="cluster">
<title>cluster_AppModule_declarations</title>
<polygon fill="none" stroke="black" points="28,-40.8 28,-92.8 818,-92.8 818,-40.8 28,-40.8"/>
</g>
<g id="clust9" class="cluster">
<title>cluster_AppModule_exports</title>
<polygon fill="none" stroke="black" points="16,-170.8 16,-222.8 822,-222.8 822,-170.8 16,-170.8"/>
</g>
<!-- AppComponent -->
<g id="node1" class="node">
<title>AppComponent</title>
<polygon fill="#ffffb3" stroke="black" points="809.94,-84.8 704.06,-84.8 704.06,-48.8 809.94,-48.8 809.94,-84.8"/>
<text text-anchor="middle" x="757" y="-62.6" font-family="Times,serif" font-size="14.00">AppComponent</text>
</g>
<!-- AppModule -->
<g id="node6" class="node">
<title>AppModule</title>
<polygon fill="#8dd3c7" stroke="black" points="479.66,-149.8 476.66,-153.8 455.66,-153.8 452.66,-149.8 396.34,-149.8 396.34,-113.8 479.66,-113.8 479.66,-149.8"/>
<text text-anchor="middle" x="438" y="-127.6" font-family="Times,serif" font-size="14.00">AppModule</text>
</g>
<!-- AppComponent&#45;&gt;AppModule -->
<g id="edge1" class="edge">
<title>AppComponent&#45;&gt;AppModule</title>
<path fill="none" stroke="black" d="M783.67,-84.82C783.67,-102.17 783.67,-125.8 783.67,-125.8 783.67,-125.8 489.7,-125.8 489.7,-125.8"/>
<polygon fill="black" stroke="black" points="489.7,-122.3 479.7,-125.8 489.7,-129.3 489.7,-122.3"/>
</g>
<!-- DialogTemplateComponent -->
<g id="node2" class="node">
<title>DialogTemplateComponent</title>
<polygon fill="#ffffb3" stroke="black" points="686.3,-84.8 513.7,-84.8 513.7,-48.8 686.3,-48.8 686.3,-84.8"/>
<text text-anchor="middle" x="600" y="-62.6" font-family="Times,serif" font-size="14.00">DialogTemplateComponent</text>
</g>
<!-- DialogTemplateComponent&#45;&gt;AppModule -->
<g id="edge2" class="edge">
<title>DialogTemplateComponent&#45;&gt;AppModule</title>
<path fill="none" stroke="black" d="M628.72,-85.04C628.72,-100.37 628.72,-119.8 628.72,-119.8 628.72,-119.8 489.85,-119.8 489.85,-119.8"/>
<polygon fill="black" stroke="black" points="489.85,-116.3 479.85,-119.8 489.85,-123.3 489.85,-116.3"/>
</g>
<!-- HomeComponent -->
<g id="node3" class="node">
<title>HomeComponent</title>
<polygon fill="#ffffb3" stroke="black" points="495.55,-84.8 380.45,-84.8 380.45,-48.8 495.55,-48.8 495.55,-84.8"/>
<text text-anchor="middle" x="438" y="-62.6" font-family="Times,serif" font-size="14.00">HomeComponent</text>
</g>
<!-- HomeComponent&#45;&gt;AppModule -->
<g id="edge3" class="edge">
<title>HomeComponent&#45;&gt;AppModule</title>
<path fill="none" stroke="black" d="M438,-84.91C438,-84.91 438,-103.79 438,-103.79"/>
<polygon fill="black" stroke="black" points="434.5,-103.79 438,-113.79 441.5,-103.79 434.5,-103.79"/>
</g>
<!-- MetricItemComponent -->
<g id="node4" class="node">
<title>MetricItemComponent</title>
<polygon fill="#ffffb3" stroke="black" points="362.3,-84.8 217.7,-84.8 217.7,-48.8 362.3,-48.8 362.3,-84.8"/>
<text text-anchor="middle" x="290" y="-62.6" font-family="Times,serif" font-size="14.00">MetricItemComponent</text>
</g>
<!-- MetricItemComponent&#45;&gt;AppModule -->
<g id="edge4" class="edge">
<title>MetricItemComponent&#45;&gt;AppModule</title>
<path fill="none" stroke="black" d="M311.22,-84.81C311.22,-100.85 311.22,-121.8 311.22,-121.8 311.22,-121.8 386.14,-121.8 386.14,-121.8"/>
<polygon fill="black" stroke="black" points="386.14,-125.3 396.14,-121.8 386.14,-118.3 386.14,-125.3"/>
</g>
<!-- MetricSettingsComponent -->
<g id="node5" class="node">
<title>MetricSettingsComponent</title>
<polygon fill="#ffffb3" stroke="black" points="199.77,-84.8 36.23,-84.8 36.23,-48.8 199.77,-48.8 199.77,-84.8"/>
<text text-anchor="middle" x="118" y="-62.6" font-family="Times,serif" font-size="14.00">MetricSettingsComponent</text>
</g>
<!-- MetricSettingsComponent&#45;&gt;AppModule -->
<g id="edge5" class="edge">
<title>MetricSettingsComponent&#45;&gt;AppModule</title>
<path fill="none" stroke="black" d="M195.76,-85.07C195.76,-103.36 195.76,-128.8 195.76,-128.8 195.76,-128.8 386.08,-128.8 386.08,-128.8"/>
<polygon fill="black" stroke="black" points="386.08,-132.3 396.08,-128.8 386.08,-125.3 386.08,-132.3"/>
</g>
<!-- AppComponent  -->
<g id="node7" class="node">
<title>AppComponent </title>
<polygon fill="#fb8072" stroke="black" points="814.44,-214.8 705.56,-214.8 705.56,-178.8 814.44,-178.8 814.44,-214.8"/>
<text text-anchor="middle" x="760" y="-192.6" font-family="Times,serif" font-size="14.00">AppComponent </text>
</g>
<!-- AppModule&#45;&gt;AppComponent  -->
<g id="edge6" class="edge">
<title>AppModule&#45;&gt;AppComponent </title>
<path fill="none" stroke="black" stroke-dasharray="5,2" d="M479.75,-137.8C560.8,-137.8 731.58,-137.8 731.58,-137.8 731.58,-137.8 731.58,-168.78 731.58,-168.78"/>
<polygon fill="black" stroke="black" points="728.08,-168.78 731.58,-178.78 735.08,-168.78 728.08,-168.78"/>
</g>
<!-- AppModule&#45;&gt;AppComponent  -->
<g id="edge11" class="edge">
<title>AppModule&#45;&gt;AppComponent </title>
<path fill="none" stroke="black" stroke-dasharray="1,5" d="M479.79,-131.8C566.42,-131.8 757.62,-131.8 757.62,-131.8 757.62,-131.8 757.62,-168.69 757.62,-168.69"/>
<polygon fill="black" stroke="black" points="754.13,-168.69 757.62,-178.69 761.13,-168.69 754.13,-168.69"/>
</g>
<!-- DialogTemplateComponent  -->
<g id="node8" class="node">
<title>DialogTemplateComponent </title>
<polygon fill="#fb8072" stroke="black" points="687.8,-214.8 512.2,-214.8 512.2,-178.8 687.8,-178.8 687.8,-214.8"/>
<text text-anchor="middle" x="600" y="-192.6" font-family="Times,serif" font-size="14.00">DialogTemplateComponent </text>
</g>
<!-- AppModule&#45;&gt;DialogTemplateComponent  -->
<g id="edge7" class="edge">
<title>AppModule&#45;&gt;DialogTemplateComponent </title>
<path fill="none" stroke="black" stroke-dasharray="5,2" d="M479.81,-143.8C518.89,-143.8 571.28,-143.8 571.28,-143.8 571.28,-143.8 571.28,-168.56 571.28,-168.56"/>
<polygon fill="black" stroke="black" points="567.78,-168.56 571.28,-178.56 574.78,-168.56 567.78,-168.56"/>
</g>
<!-- HomeComponent  -->
<g id="node9" class="node">
<title>HomeComponent </title>
<polygon fill="#fb8072" stroke="black" points="494.54,-214.8 375.46,-214.8 375.46,-178.8 494.54,-178.8 494.54,-214.8"/>
<text text-anchor="middle" x="435" y="-192.6" font-family="Times,serif" font-size="14.00">HomeComponent </text>
</g>
<!-- AppModule&#45;&gt;HomeComponent  -->
<g id="edge8" class="edge">
<title>AppModule&#45;&gt;HomeComponent </title>
<path fill="none" stroke="black" stroke-dasharray="5,2" d="M438,-149.91C438,-149.91 438,-168.79 438,-168.79"/>
<polygon fill="black" stroke="black" points="434.5,-168.79 438,-178.79 441.5,-168.79 434.5,-168.79"/>
</g>
<!-- MetricItemComponent  -->
<g id="node10" class="node">
<title>MetricItemComponent </title>
<polygon fill="#fb8072" stroke="black" points="357.8,-214.8 210.2,-214.8 210.2,-178.8 357.8,-178.8 357.8,-214.8"/>
<text text-anchor="middle" x="284" y="-192.6" font-family="Times,serif" font-size="14.00">MetricItemComponent </text>
</g>
<!-- AppModule&#45;&gt;MetricItemComponent  -->
<g id="edge9" class="edge">
<title>AppModule&#45;&gt;MetricItemComponent </title>
<path fill="none" stroke="black" stroke-dasharray="5,2" d="M396.01,-142.8C344.67,-142.8 264.53,-142.8 264.53,-142.8 264.53,-142.8 264.53,-168.52 264.53,-168.52"/>
<polygon fill="black" stroke="black" points="261.03,-168.52 264.53,-178.52 268.03,-168.52 261.03,-168.52"/>
</g>
<!-- MetricSettingsComponent  -->
<g id="node11" class="node">
<title>MetricSettingsComponent </title>
<polygon fill="#fb8072" stroke="black" points="191.77,-214.8 24.23,-214.8 24.23,-178.8 191.77,-178.8 191.77,-214.8"/>
<text text-anchor="middle" x="108" y="-192.6" font-family="Times,serif" font-size="14.00">MetricSettingsComponent </text>
</g>
<!-- AppModule&#45;&gt;MetricSettingsComponent  -->
<g id="edge10" class="edge">
<title>AppModule&#45;&gt;MetricSettingsComponent </title>
<path fill="none" stroke="black" stroke-dasharray="5,2" d="M396.29,-135.8C308.75,-135.8 113.88,-135.8 113.88,-135.8 113.88,-135.8 113.88,-168.5 113.88,-168.5"/>
<polygon fill="black" stroke="black" points="110.38,-168.5 113.88,-178.5 117.38,-168.5 110.38,-168.5"/>
</g>
</g>
</svg>
